<svg width="512" height="512" viewBox="0 0 512 512" fill="none" xmlns="http://www.w3.org/2000/svg">
  <rect width="512" height="512" rx="128" fill="url(#paint0_linear)" />
  <path d="M164 206C164 176.177 188.177 152 218 152H294C323.823 152 348 176.177 348 206V218H370C386.569 218 400 231.431 400 248V342C400 369.614 377.614 392 350 392H162C134.386 392 112 369.614 112 342V248C112 231.431 125.431 218 142 218H164V206Z" fill="white" fill-opacity="0.95"/>
  <path d="M196 218V206C196 193.85 205.85 184 218 184H294C306.15 184 316 193.85 316 206V218" stroke="#F43F5E" stroke-width="24" stroke-linecap="round"/>
  <path d="M190 300H322" stroke="#0F172A" stroke-width="28" stroke-linecap="round"/>
  <path d="M216 344H296" stroke="#0F172A" stroke-width="20" stroke-linecap="round"/>
  <defs>
    <linearGradient id="paint0_linear" x1="82" y1="74" x2="442" y2="444" gradientUnits="userSpaceOnUse">
      <stop stop-color="#FBBF24"/>
      <stop offset="0.52" stop-color="#F97316"/>
      <stop offset="1" stop-color="#E11D48"/>
    </linearGradient>
  </defs>
</svg>
